<svg xmlns="http://www.w3.org/2000/svg" xmlns:xlink="http://www.w3.org/1999/xlink" viewBox="0,0,256,256" width="24px" height="24px" fill-rule="nonzero"><g fill="#555555" fill-rule="nonzero" stroke="none" stroke-width="1" stroke-linecap="butt" stroke-linejoin="miter" stroke-miterlimit="10" stroke-dasharray="" stroke-dashoffset="0" font-family="none" font-weight="none" font-size="none" text-anchor="none" style="mix-blend-mode: normal"><g transform="scale(10.66667,10.66667)"><path d="M16.28125,3.8125c-0.22656,0.01563 -0.46484,0.04688 -0.6875,0.09375c-0.41406,0.08984 -0.68359,0.49609 -0.59375,0.90625c0.08594,0.41406 0.49219,0.68359 0.90625,0.59375c1.27344,-0.26953 2.66016,0.125 3.59375,1.15625c0.93359,1.03516 1.17969,2.44922 0.78125,3.6875c-0.12891,0.40234 0.09766,0.83984 0.5,0.96875c0.40234,0.12891 0.83594,-0.09766 0.96875,-0.5c0.5625,-1.74219 0.21875,-3.70312 -1.09375,-5.15625c-0.98437,-1.09375 -2.35937,-1.6875 -3.71875,-1.75c-0.22656,-0.01172 -0.42969,-0.01562 -0.65625,0zM10.0625,6.09375c-1.39453,0.14844 -3.36328,1.23828 -5.09375,2.96875c-1.88672,1.88672 -2.96875,3.89453 -2.96875,5.625c0,3.30859 4.22656,5.3125 8.375,5.3125c5.4375,0 9.0625,-3.17969 9.0625,-5.6875c0,-1.51562 -1.25781,-2.36328 -2.40625,-2.71875c-0.28125,-0.08594 -0.49219,-0.12891 -0.34375,-0.5c0.32031,-0.80469 0.37891,-1.50391 0.03125,-2c-0.64844,-0.92969 -2.46484,-0.88281 -4.5,-0.03125c0,0 -0.63281,0.28906 -0.46875,-0.21875c0.3125,-1.00781 0.26953,-1.85547 -0.21875,-2.34375c-0.34375,-0.34766 -0.83594,-0.47266 -1.46875,-0.40625zM16.8125,6.5c-0.22266,-0.01172 -0.4375,0.01563 -0.65625,0.0625c-0.35547,0.07422 -0.57812,0.45703 -0.5,0.8125c0.07813,0.35547 0.42578,0.57813 0.78125,0.5c0.42578,-0.08984 0.90625,0.02734 1.21875,0.375c0.3125,0.34766 0.38672,0.80469 0.25,1.21875c-0.11328,0.34766 0.05859,0.73047 0.40625,0.84375c0.34766,0.10938 0.73438,-0.05859 0.84375,-0.40625c0.27344,-0.84766 0.10938,-1.82031 -0.53125,-2.53125c-0.48047,-0.53125 -1.14844,-0.84375 -1.8125,-0.875zM10.8125,10.90625c2.76953,0.09766 5,1.47266 5.1875,3.375c0.21484,2.17578 -2.28125,4.20313 -5.59375,4.53125c-3.3125,0.32813 -6.19141,-1.17187 -6.40625,-3.34375c-0.21484,-2.17578 2.31641,-4.20312 5.625,-4.53125c0.41406,-0.03906 0.79297,-0.04687 1.1875,-0.03125zM8.9375,13c-1.13281,0.10156 -2.20312,0.75 -2.6875,1.6875c-0.66016,1.27734 -0.00781,2.69141 1.5,3.15625c1.55859,0.48047 3.39063,-0.24609 4.03125,-1.625c0.62891,-1.34766 -0.17578,-2.74609 -1.71875,-3.125c-0.37109,-0.09375 -0.74609,-0.12891 -1.125,-0.09375zM8.21875,15.0625c0.13281,0.00391 0.25391,0.04688 0.375,0.09375c0.48828,0.19922 0.64063,0.72266 0.34375,1.1875c-0.30469,0.46094 -0.94922,0.68359 -1.4375,0.46875c-0.48047,-0.21094 -0.61719,-0.73828 -0.3125,-1.1875c0.22656,-0.33594 0.63672,-0.56641 1.03125,-0.5625z"></path></g></g></svg>